<?xml version="1.0" encoding="UTF-8" standalone="no"?>
<svg width="180px" height="180px" viewBox="0 0 180 180" version="1.1" xmlns="http://www.w3.org/2000/svg" xmlns:xlink="http://www.w3.org/1999/xlink" xmlns:sketch="http://www.bohemiancoding.com/sketch/ns">
    <!-- Generator: Sketch 3.5.2 (25235) - http://www.bohemiancoding.com/sketch -->
    <title>180 - Siter Mark</title>
    <desc>Created with Sketch.</desc>
    <defs></defs>
    <g id="Page-1" stroke="none" stroke-width="1" fill="none" fill-rule="evenodd" sketch:type="MSPage">
        <g id="180---Siter-Mark" sketch:type="MSArtboardGroup">
            <g id="Group" sketch:type="MSLayerGroup" transform="translate(6.000000, 0.000000)">
                <path d="M100.068967,73.6557662 L73.5996333,47.1396623 L92.7679667,27.9357662 L119.234967,54.4542078 L100.068967,73.6557662 Z" id="Fill-26" fill="#FFAB00" sketch:type="MSShapeGroup"></path>
                <path d="M75.5302333,151.817844 L49.0585667,125.30174 L68.2292333,106.095506 L94.6962333,132.616286 L75.5302333,151.817844 Z" id="Fill-28" fill="#66BB6A" sketch:type="MSShapeGroup"></path>
                <path d="M127.1074,104.535117 L98.0364,133.660052 L40.7484,76.2634286 L69.8170667,47.1408312 L127.1074,104.535117 Z" id="Fill-30" fill="#4FC3F8" sketch:type="MSShapeGroup"></path>
                <path d="M83.9293,12.7063636 C79.4983,12.7063636 75.2469667,13.6975325 72.2626333,15.4227273 L24.9496333,42.7920779 C18.7383,46.3874026 13.2829667,55.8432468 13.2829667,63.0268831 L13.2829667,117.77026 C13.2829667,124.960909 18.7383,134.414416 24.9496333,138.00974 L72.2626333,165.381429 C75.2469667,167.106623 79.4983,168.090779 83.9293,168.090779 C88.3556333,168.090779 92.6093,167.106623 95.5913,165.381429 L142.9043,138.00974 C149.117967,134.414416 154.5733,124.960909 154.5733,117.77026 L154.5733,63.0268831 C154.5733,55.8432468 149.117967,46.3874026 142.9043,42.7920779 L95.5913,15.4227273 C92.6093,13.6975325 88.3556333,12.7063636 83.9293,12.7063636 M83.9293,179.741688 C77.6736333,179.741688 71.7399667,178.301688 67.2179667,175.678831 L18.5679667,147.54039 C9.1973,142.121688 1.8543,129.381429 1.8543,118.541688 L1.8543,62.2577922 C1.8543,51.4227273 9.1973,38.6801299 18.5679667,33.2590909 L67.2179667,5.11597403 C71.7399667,2.50246753 77.6736333,1.06012987 83.9293,1.06012987 C90.1826333,1.06012987 96.1163,2.50246753 100.640633,5.11597403 L149.285967,33.2590909 C158.656633,38.6801299 166.001967,51.4227273 166.001967,62.2577922 L166.001967,118.541688 C166.001967,129.381429 158.656633,142.121688 149.285967,147.54039 L100.640633,175.678831 C96.1163,178.301688 90.1826333,179.741688 83.9293,179.741688" id="Fill-32" fill="#430560" sketch:type="MSShapeGroup"></path>
                <path d="M65.4154667,94.010961 L75.8921333,104.509403 L58.7024667,121.728623 C55.8954667,124.543169 55.8954667,129.113299 58.7024667,131.925506 L70.6374667,143.880312 C73.3534667,146.603688 78.0971333,146.603688 80.8178,143.880312 L115.031467,109.605506 C117.080133,107.548364 117.7008,104.486026 116.611133,101.793039 C116.249467,100.897714 115.717467,100.098234 115.031467,99.410961 L91.9594667,76.2938182 L109.1468,59.0745974 C110.509467,57.7164156 111.256133,55.9023896 111.256133,53.9761558 C111.256133,52.0475844 110.509467,50.2405714 109.151467,48.8777143 L97.2141333,36.9229091 C94.4911333,34.1925195 89.7544667,34.1925195 87.0338,36.9229091 L52.8201333,71.1977143 C50.7714667,73.2548571 50.1508,76.3195325 51.2428,79.0101818 C51.6021333,79.9031688 52.1318,80.7073247 52.8201333,81.3945974 L65.4154667,94.010961 Z M75.7241333,157.368623 L75.7241333,157.368623 C70.7704667,157.368623 66.1131333,155.435377 62.6108,151.924208 L50.6734667,139.96239 C43.4424667,132.720312 43.4424667,120.936156 50.6758,113.689403 L59.8364667,104.509403 L57.2021333,101.870182 L56.3854667,101.362909 L56.0751333,100.738753 L44.7958,89.4361558 C43.0248,87.6665455 41.6504667,85.593039 40.7194667,83.2834286 C37.9124667,76.3499221 39.5108,68.450961 44.7911333,63.1538182 L79.0071333,28.8813506 C82.5094667,25.3678442 87.1668,23.4345974 92.1251333,23.4345974 C97.0788,23.4345974 101.736133,25.3678442 105.2408,28.8813506 L117.1758,40.8361558 C120.6828,44.3473247 122.610133,49.0132987 122.610133,53.9761558 C122.610133,58.9413506 120.6828,63.6073247 117.1758,67.1208312 L108.0128,76.2938182 L123.058133,91.3670649 C124.822133,93.1343377 126.194133,95.2055065 127.132133,97.5151169 C129.939133,104.453299 128.338467,112.35226 123.058133,117.647065 L88.8444667,151.924208 C85.3398,155.435377 80.6824667,157.368623 75.7241333,157.368623 L75.7241333,157.368623 Z" id="Fill-34" fill="#430560" sketch:type="MSShapeGroup"></path>
                <path d="M95.9721,80.3148312 L68.6954333,52.9875584 L76.7221,44.946 L103.998767,72.2732727 L95.9721,80.3148312 Z" id="Fill-36" fill="#430560" sketch:type="MSShapeGroup"></path>
                <path d="M93.9918,138.723429 L63.8521333,108.530182 L71.8788,100.488623 L102.0138,130.684208 L93.9918,138.723429 Z" id="Fill-38" fill="#430560" sketch:type="MSShapeGroup"></path>
            </g>
        </g>
    </g>
</svg>