<?xml version="1.0" encoding="UTF-8" standalone="no"?>
<!DOCTYPE svg PUBLIC "-//W3C//DTD SVG 1.1//EN" "http://www.w3.org/Graphics/SVG/1.1/DTD/svg11.dtd">
<svg id="siter-logo" width="100%" height="100%" viewBox="0 0 160 176" version="1.1" xmlns="http://www.w3.org/2000/svg" xmlns:xlink="http://www.w3.org/1999/xlink" xml:space="preserve" xmlns:serif="http://www.serif.com/" style="fill-rule:evenodd;clip-rule:evenodd;stroke-linejoin:round;stroke-miterlimit:2;">
  <defs>
    <path id="logo" d="M89.929,12.706C94.356,12.706 98.609,13.698 101.591,15.423L148.904,42.792C155.118,46.387 160.573,55.843 160.573,63.027L160.573,117.77C160.573,124.961 155.118,134.414 148.904,138.01L101.591,165.381C98.609,167.107 94.356,168.091 89.929,168.091C85.498,168.091 81.247,167.107 78.263,165.381L30.95,138.01C24.738,134.414 19.283,124.961 19.283,117.77L19.283,63.027C19.283,55.843 24.738,46.387 30.95,42.792L78.263,15.423C81.247,13.698 85.498,12.706 89.929,12.706ZM74.093,93.489L83.054,102.468L68.351,117.197C65.95,119.604 65.95,123.513 68.351,125.919L78.559,136.143C80.883,138.473 84.94,138.473 87.268,136.143L116.531,106.828C118.284,105.067 118.815,102.448 117.883,100.145C117.573,99.379 117.118,98.695 116.531,98.107L96.797,78.334L111.499,63.606C112.664,62.444 113.302,60.892 113.302,59.245C113.302,57.596 112.664,56.05 111.502,54.884L101.292,44.659C98.963,42.324 94.911,42.324 92.584,44.659L63.32,73.976C61.567,75.735 61.037,78.357 61.971,80.658C62.278,81.421 62.731,82.109 63.32,82.698L74.093,93.489Z"  />

    <clipPath id="insideLogoOnly">
      <use href="#logo"/>
    </clipPath>

  </defs>

  <g id="group" transform="matrix(1.13272,0,0,1.13272,-21.8423,-14.363)">
      <use
        href="#logo"
        stroke-width="16"
        clip-path="url(#insideLogoOnly)"
      />
  </g>
</svg>
