<?xml version="1.0" encoding="UTF-8" standalone="no"?>
<!DOCTYPE svg PUBLIC "-//W3C//DTD SVG 1.1//EN" "http://www.w3.org/Graphics/SVG/1.1/DTD/svg11.dtd">
<svg id="siter-logo" width="100%" height="100%" viewBox="0 0 160 176" version="1.1" xmlns="http://www.w3.org/2000/svg" xmlns:xlink="http://www.w3.org/1999/xlink" xml:space="preserve" xmlns:serif="http://www.serif.com/" style="fill-rule:evenodd;clip-rule:evenodd;stroke-linejoin:round;stroke-miterlimit:2;">
    <g id="group" transform="matrix(1.13272,0,0,1.13272,-21.8423,-14.363)">
        <path id="logo-bg-fill" d="M89.929,12.706C94.356,12.706 98.609,13.698 101.591,15.423L148.904,42.792C155.118,46.387 160.573,55.843 160.573,63.027L160.573,117.77C160.573,124.961 155.118,134.414 148.904,138.01L101.591,165.381C98.609,167.107 94.356,168.091 89.929,168.091C85.498,168.091 81.247,167.107 78.263,165.381L30.95,138.01C24.738,134.414 19.283,124.961 19.283,117.77L19.283,63.027C19.283,55.843 24.738,46.387 30.95,42.792L78.263,15.423C81.247,13.698 85.498,12.706 89.929,12.706ZM74.093,93.489L83.054,102.468L68.351,117.197C65.95,119.604 65.95,123.513 68.351,125.919L78.559,136.143C80.883,138.473 84.94,138.473 87.268,136.143L116.531,106.828C118.284,105.067 118.815,102.448 117.883,100.145C117.573,99.379 117.118,98.695 116.531,98.107L96.797,78.334L111.499,63.606C112.664,62.444 113.302,60.892 113.302,59.245C113.302,57.596 112.664,56.05 111.502,54.884L101.292,44.659C98.963,42.324 94.911,42.324 92.584,44.659L63.32,73.976C61.567,75.735 61.037,78.357 61.971,80.658C62.278,81.421 62.731,82.109 63.32,82.698L74.093,93.489Z" fill="#FFE882" />

        <path id="logo-outline" d="M89.929,12.706C94.356,12.706 98.609,13.698 101.591,15.423L148.904,42.792C155.118,46.387 160.573,55.843 160.573,63.027L160.573,117.77C160.573,124.961 155.118,134.414 148.904,138.01L101.591,165.381C98.609,167.107 94.356,168.091 89.929,168.091C85.498,168.091 81.247,167.107 78.263,165.381L30.95,138.01C24.738,134.414 19.283,124.961 19.283,117.77L19.283,63.027C19.283,55.843 24.738,46.387 30.95,42.792L78.263,15.423C81.247,13.698 85.498,12.706 89.929,12.706ZM89.929,19.61C86.82,19.61 83.812,20.19 81.718,21.4L34.408,48.768C30.031,51.301 26.187,57.965 26.187,63.027L26.187,117.77C26.187,122.838 30.031,129.5 34.409,132.035L81.72,159.405C83.813,160.615 86.821,161.187 89.929,161.187C93.033,161.187 96.042,160.616 98.132,159.406L145.446,132.034C149.825,129.5 153.669,122.838 153.669,117.77L153.669,63.027C153.669,57.965 149.825,51.301 145.447,48.768L98.134,21.399C96.043,20.19 93.034,19.61 89.929,19.61ZM106.177,39.781L116.388,50.006L116.393,50.011L118.017,51.994L119.219,54.248L119.958,56.694L120.207,59.245L119.958,61.796L119.218,64.244L118.012,66.503C118.012,66.503 116.392,68.473 116.385,68.484L106.552,78.335L121.417,93.229L123.063,95.241L124.283,97.555L125.188,101.292L124.981,105.059L123.707,108.609L121.424,111.699L121.418,111.705L92.152,141.023L90.066,142.708L87.769,143.883L85.362,144.57L82.912,144.795L80.461,144.57L78.055,143.883L75.756,142.706C75.756,142.706 73.677,141.024 73.674,141.022L63.464,130.796L61.797,128.749L60.599,126.467L59.884,124.044L59.646,121.558L59.884,119.072L60.599,116.649L61.796,114.368L63.463,112.321L73.299,102.467L69.206,98.366L58.438,87.58L56.779,85.549L55.572,83.245L54.665,79.515L54.87,75.747L56.143,72.195L58.428,69.103L58.433,69.098L87.693,39.786L89.778,38.098L92.076,36.919L94.484,36.229L96.937,36.003L99.39,36.229L101.798,36.918L104.096,38.097C104.096,38.097 106.174,39.779 106.177,39.781ZM74.093,93.489L83.054,102.468L68.351,117.197C65.95,119.604 65.95,123.513 68.351,125.919L78.559,136.143C80.883,138.473 84.94,138.473 87.268,136.143L116.531,106.828C118.284,105.067 118.815,102.448 117.883,100.145C117.573,99.379 117.118,98.695 116.531,98.107L96.797,78.334L111.499,63.606C112.664,62.444 113.302,60.892 113.302,59.245C113.302,57.596 112.664,56.05 111.502,54.884L101.292,44.659C98.963,42.324 94.911,42.324 92.584,44.659L63.32,73.976C61.567,75.735 61.037,78.357 61.971,80.658C62.278,81.421 62.731,82.109 63.32,82.698L74.093,93.489Z" fill="#430560" />
    </g>
</svg>
