<?xml version="1.0" encoding="UTF-8" standalone="no"?>
<!DOCTYPE svg PUBLIC "-//W3C//DTD SVG 1.1//EN" "http://www.w3.org/Graphics/SVG/1.1/DTD/svg11.dtd">
<svg width="100%" height="100%" viewBox="0 0 180 180" version="1.1" xmlns="http://www.w3.org/2000/svg" xmlns:xlink="http://www.w3.org/1999/xlink" xml:space="preserve" xmlns:serif="http://www.serif.com/" style="fill-rule:evenodd;clip-rule:evenodd;stroke-linejoin:round;stroke-miterlimit:2;">
    <g id="Group" transform="matrix(1,0,0,1,6,0)">
        <g transform="matrix(1,0,0,1,-6,0)">
            <path d="M89.929,12.706C94.356,12.706 98.609,13.698 101.591,15.423L148.904,42.792C155.118,46.387 160.573,55.843 160.573,63.027L160.573,117.77C160.573,124.961 155.118,134.414 148.904,138.01L101.591,165.381C98.609,167.107 94.356,168.091 89.929,168.091C85.498,168.091 81.247,167.107 78.263,165.381L30.95,138.01C24.738,134.414 19.283,124.961 19.283,117.77L19.283,63.027C19.283,55.843 24.738,46.387 30.95,42.792L78.263,15.423C81.247,13.698 85.498,12.706 89.929,12.706ZM71.415,94.011L81.892,104.509L64.702,121.729C61.895,124.543 61.895,129.113 64.702,131.926L76.637,143.88C79.353,146.604 84.097,146.604 86.818,143.88L121.031,109.606C123.08,107.548 123.701,104.486 122.611,101.793C122.249,100.898 121.717,100.098 121.031,99.411L97.959,76.294L115.147,59.075C116.509,57.716 117.256,55.902 117.256,53.976C117.256,52.048 116.509,50.241 115.151,48.878L103.214,36.923C100.491,34.193 95.754,34.193 93.034,36.923L58.82,71.198C56.771,73.255 56.151,76.32 57.243,79.01C57.602,79.903 58.132,80.707 58.82,81.395L71.415,94.011Z" style="fill:white;"/>
        </g>
        <path id="Fill-32" d="M83.929,12.706C79.498,12.706 75.247,13.698 72.263,15.423L24.95,42.792C18.738,46.387 13.283,55.843 13.283,63.027L13.283,117.77C13.283,124.961 18.738,134.414 24.95,138.01L72.263,165.381C75.247,167.107 79.498,168.091 83.929,168.091C88.356,168.091 92.609,167.107 95.591,165.381L142.904,138.01C149.118,134.414 154.573,124.961 154.573,117.77L154.573,63.027C154.573,55.843 149.118,46.387 142.904,42.792L95.591,15.423C92.609,13.698 88.356,12.706 83.929,12.706M83.929,179.742C77.674,179.742 71.74,178.302 67.218,175.679L18.568,147.54C9.197,142.122 1.854,129.381 1.854,118.542L1.854,62.258C1.854,51.423 9.197,38.68 18.568,33.259L67.218,5.116C71.74,2.502 77.674,1.06 83.929,1.06C90.183,1.06 96.116,2.502 100.641,5.116L149.286,33.259C158.657,38.68 166.002,51.423 166.002,62.258L166.002,118.542C166.002,129.381 158.657,142.122 149.286,147.54L100.641,175.679C96.116,178.302 90.183,179.742 83.929,179.742" style="fill:rgb(67,5,96);"/>
        <path id="Fill-34" d="M65.415,94.011L75.892,104.509L58.702,121.729C55.895,124.543 55.895,129.113 58.702,131.926L70.637,143.88C73.353,146.604 78.097,146.604 80.818,143.88L115.031,109.606C117.08,107.548 117.701,104.486 116.611,101.793C116.249,100.898 115.717,100.098 115.031,99.411L91.959,76.294L109.147,59.075C110.509,57.716 111.256,55.902 111.256,53.976C111.256,52.048 110.509,50.241 109.151,48.878L97.214,36.923C94.491,34.193 89.754,34.193 87.034,36.923L52.82,71.198C50.771,73.255 50.151,76.32 51.243,79.01C51.602,79.903 52.132,80.707 52.82,81.395L65.415,94.011ZM75.724,157.369C70.77,157.369 66.113,155.435 62.611,151.924L50.673,139.962C43.442,132.72 43.442,120.936 50.676,113.689L59.836,104.509L57.202,101.87L56.075,100.739L44.796,89.436C43.025,87.667 41.65,85.593 40.719,83.283C37.912,76.35 39.511,68.451 44.791,63.154L79.007,28.881C82.509,25.368 87.167,23.435 92.125,23.435C97.079,23.435 101.736,25.368 105.241,28.881L117.176,40.836C120.683,44.347 122.61,49.013 122.61,53.976C122.61,58.941 120.683,63.607 117.176,67.121L108.013,76.294L123.058,91.367C124.822,93.134 126.194,95.206 127.132,97.515C129.939,104.453 128.338,112.352 123.058,117.647L88.844,151.924C85.34,155.435 80.682,157.369 75.724,157.369Z" style="fill:rgb(67,5,96);"/>
    </g>
</svg>
